<?xml version="1.0" encoding="UTF-8"?>
<svg xmlns="http://www.w3.org/2000/svg" xmlns:xlink="http://www.w3.org/1999/xlink" width="60pt" height="60pt" viewBox="0 0 60 60" version="1.1">
<g id="surface1">
<path style=" stroke:none;fill-rule:nonzero;fill:rgb(94.901961%,94.901961%,94.901961%);fill-opacity:1;" d="M 58.808594 59.058594 L 1.191406 59.058594 L 1.191406 8.707031 C 1.191406 6.628906 2.871094 4.949219 4.949219 4.949219 L 55.050781 4.949219 C 57.128906 4.949219 58.808594 6.628906 58.808594 8.707031 Z M 58.808594 59.058594 "/>
<path style=" stroke:none;fill-rule:nonzero;fill:rgb(91.372549%,11.764706%,38.823529%);fill-opacity:1;" d="M 58.808594 8.707031 C 58.808594 6.628906 57.128906 4.949219 55.050781 4.949219 L 4.949219 4.949219 C 2.871094 4.949219 1.191406 6.628906 1.191406 8.707031 L 1.191406 13.007812 L 58.808594 13.007812 Z M 58.808594 8.707031 "/>
<path style=" stroke:none;fill-rule:nonzero;fill:rgb(89.803922%,89.803922%,89.803922%);fill-opacity:1;" d="M 4.949219 4.949219 C 2.871094 4.949219 1.191406 6.628906 1.191406 8.707031 L 1.191406 59.058594 L 36 59.058594 L 7.222656 4.949219 Z M 4.949219 4.949219 "/>
<path style=" stroke:none;fill-rule:nonzero;fill:rgb(84.705882%,14.509804%,38.431373%);fill-opacity:1;" d="M 7.222656 4.949219 L 4.949219 4.949219 C 2.871094 4.949219 1.191406 6.628906 1.191406 8.707031 L 1.191406 13.007812 L 11.507812 13.007812 Z M 7.222656 4.949219 "/>
<path style=" stroke:none;fill-rule:nonzero;fill:rgb(38.431373%,78.823529%,80%);fill-opacity:1;" d="M 18.976562 17.976562 L 18.976562 22.984375 L 21.984375 22.984375 L 23.488281 25.492188 L 24.988281 22.984375 L 27.746094 22.984375 L 27.746094 17.976562 Z M 18.976562 17.976562 "/>
<path style=" stroke:none;fill-rule:nonzero;fill:rgb(96.862745%,81.568627%,29.019608%);fill-opacity:1;" d="M 33.007812 31.253906 L 33.007812 36.261719 L 36.011719 36.261719 L 37.515625 38.769531 L 39.019531 36.261719 L 41.773438 36.261719 L 41.773438 31.253906 Z M 33.007812 31.253906 "/>
<path style=" stroke:none;fill-rule:nonzero;fill:rgb(91.372549%,11.764706%,38.823529%);fill-opacity:1;" d="M 11.460938 44.53125 L 11.460938 49.539062 L 14.46875 49.539062 L 15.972656 52.046875 L 17.472656 49.539062 L 20.230469 49.539062 L 20.230469 44.53125 Z M 11.460938 44.53125 "/>
<path style=" stroke:none;fill-rule:nonzero;fill:rgb(0%,0%,0%);fill-opacity:1;" d="M 55.050781 4.007812 L 51.984375 4.007812 L 51.984375 0.941406 C 51.984375 0.421875 51.5625 0 51.042969 0 C 50.523438 0 50.105469 0.421875 50.105469 0.941406 L 50.105469 4.007812 L 44.96875 4.007812 L 44.96875 0.941406 C 44.96875 0.421875 44.546875 0 44.027344 0 C 43.511719 0 43.089844 0.421875 43.089844 0.941406 L 43.089844 4.007812 L 37.953125 4.007812 L 37.953125 0.941406 C 37.953125 0.421875 37.535156 0 37.015625 0 C 36.496094 0 36.074219 0.421875 36.074219 0.941406 L 36.074219 4.007812 L 30.9375 4.007812 L 30.9375 0.941406 C 30.941406 0.421875 30.519531 0 30 0 C 29.480469 0 29.058594 0.421875 29.058594 0.941406 L 29.058594 4.007812 L 23.925781 4.007812 L 23.925781 0.941406 C 23.925781 0.421875 23.503906 0 22.984375 0 C 22.464844 0 22.046875 0.421875 22.046875 0.941406 L 22.046875 4.007812 L 16.910156 4.007812 L 16.910156 0.941406 C 16.910156 0.421875 16.488281 0 15.96875 0 C 15.453125 0 15.03125 0.421875 15.03125 0.941406 L 15.03125 4.007812 L 9.894531 4.007812 L 9.894531 0.941406 C 9.894531 0.421875 9.476562 0 8.957031 0 C 8.4375 0 8.015625 0.421875 8.015625 0.941406 L 8.015625 4.007812 L 4.949219 4.007812 C 2.359375 4.007812 0.25 6.117188 0.25 8.707031 L 0.25 44.03125 C 0.25 44.546875 0.671875 44.96875 1.191406 44.96875 C 1.707031 44.96875 2.128906 44.546875 2.128906 44.03125 L 2.128906 13.945312 L 45.03125 13.945312 C 45.550781 13.945312 45.972656 13.523438 45.972656 13.007812 C 45.972656 12.488281 45.550781 12.066406 45.03125 12.066406 L 2.128906 12.066406 L 2.128906 8.707031 C 2.128906 7.152344 3.394531 5.886719 4.949219 5.886719 L 8.015625 5.886719 L 8.015625 8.453125 C 8.015625 8.972656 8.4375 9.394531 8.957031 9.394531 C 9.476562 9.394531 9.894531 8.972656 9.894531 8.453125 L 9.894531 5.886719 L 15.03125 5.886719 L 15.03125 8.453125 C 15.03125 8.972656 15.453125 9.394531 15.972656 9.394531 C 16.488281 9.394531 16.910156 8.972656 16.910156 8.453125 L 16.910156 5.886719 L 22.046875 5.886719 L 22.046875 8.453125 C 22.046875 8.972656 22.464844 9.394531 22.984375 9.394531 C 23.503906 9.394531 23.925781 8.972656 23.925781 8.453125 L 23.925781 5.886719 L 29.0625 5.886719 L 29.0625 8.453125 C 29.0625 8.972656 29.480469 9.394531 30 9.394531 C 30.519531 9.394531 30.941406 8.972656 30.941406 8.453125 L 30.941406 5.886719 L 36.074219 5.886719 L 36.074219 8.453125 C 36.074219 8.972656 36.496094 9.394531 37.015625 9.394531 C 37.535156 9.394531 37.953125 8.972656 37.953125 8.453125 L 37.953125 5.886719 L 43.089844 5.886719 L 43.089844 8.453125 C 43.089844 8.972656 43.511719 9.394531 44.03125 9.394531 C 44.546875 9.394531 44.96875 8.972656 44.96875 8.453125 L 44.96875 5.886719 L 50.105469 5.886719 L 50.105469 8.453125 C 50.105469 8.972656 50.527344 9.394531 51.042969 9.394531 C 51.5625 9.394531 51.984375 8.972656 51.984375 8.453125 L 51.984375 5.886719 L 55.054688 5.886719 C 56.605469 5.886719 57.871094 7.152344 57.871094 8.707031 L 57.871094 12.066406 L 50.042969 12.066406 C 49.523438 12.066406 49.101562 12.488281 49.101562 13.007812 C 49.101562 13.523438 49.523438 13.945312 50.042969 13.945312 L 57.871094 13.945312 L 57.871094 58.121094 L 2.128906 58.121094 L 2.128906 49.039062 C 2.128906 48.519531 1.707031 48.101562 1.191406 48.101562 C 0.671875 48.101562 0.25 48.519531 0.25 49.039062 L 0.25 59.0625 C 0.25 59.578125 0.671875 60 1.191406 60 L 58.808594 60 C 59.328125 60 59.75 59.578125 59.75 59.0625 L 59.75 8.707031 C 59.75 6.117188 57.640625 4.007812 55.050781 4.007812 Z M 55.050781 4.007812 "/>
<path style=" stroke:none;fill-rule:nonzero;fill:rgb(0%,0%,0%);fill-opacity:1;" d="M 7.515625 27.496094 C 7.515625 28.011719 7.9375 28.433594 8.457031 28.433594 L 51.546875 28.433594 C 52.0625 28.433594 52.484375 28.015625 52.484375 27.496094 C 52.484375 26.976562 52.0625 26.554688 51.546875 26.554688 L 8.453125 26.554688 C 7.9375 26.554688 7.515625 26.976562 7.515625 27.496094 Z M 7.515625 27.496094 "/>
<path style=" stroke:none;fill-rule:nonzero;fill:rgb(0%,0%,0%);fill-opacity:1;" d="M 21.453125 23.925781 L 22.679688 25.972656 C 23.039062 26.570312 23.933594 26.570312 24.292969 25.972656 L 25.519531 23.925781 L 27.746094 23.925781 C 28.265625 23.925781 28.683594 23.503906 28.683594 22.984375 L 28.683594 17.976562 C 28.683594 17.457031 28.265625 17.035156 27.746094 17.035156 L 18.976562 17.035156 C 18.457031 17.035156 18.039062 17.457031 18.039062 17.976562 L 18.039062 22.984375 C 18.039062 23.503906 18.457031 23.925781 18.976562 23.925781 Z M 19.917969 18.914062 L 26.804688 18.914062 L 26.804688 22.046875 L 24.988281 22.046875 C 24.660156 22.046875 24.355469 22.21875 24.183594 22.503906 L 23.488281 23.664062 L 22.789062 22.503906 C 22.621094 22.21875 22.3125 22.046875 21.984375 22.046875 L 19.917969 22.046875 Z M 19.917969 18.914062 "/>
<path style=" stroke:none;fill-rule:nonzero;fill:rgb(0%,0%,0%);fill-opacity:1;" d="M 8.453125 41.671875 L 51.546875 41.671875 C 52.0625 41.671875 52.484375 41.25 52.484375 40.730469 C 52.484375 40.210938 52.0625 39.792969 51.546875 39.792969 L 8.453125 39.792969 C 7.9375 39.792969 7.515625 40.210938 7.515625 40.730469 C 7.515625 41.25 7.9375 41.671875 8.453125 41.671875 Z M 8.453125 41.671875 "/>
<path style=" stroke:none;fill-rule:nonzero;fill:rgb(0%,0%,0%);fill-opacity:1;" d="M 33.007812 30.3125 C 32.488281 30.3125 32.066406 30.734375 32.066406 31.253906 L 32.066406 36.261719 C 32.066406 36.78125 32.488281 37.203125 33.007812 37.203125 L 35.480469 37.203125 L 36.710938 39.25 C 37.066406 39.847656 37.960938 39.847656 38.320312 39.25 L 39.550781 37.203125 L 41.773438 37.203125 C 42.292969 37.203125 42.714844 36.78125 42.714844 36.261719 L 42.714844 31.253906 C 42.714844 30.734375 42.292969 30.3125 41.773438 30.3125 Z M 40.835938 35.324219 L 39.019531 35.324219 C 38.6875 35.324219 38.382812 35.496094 38.214844 35.78125 L 37.515625 36.941406 L 36.816406 35.78125 C 36.648438 35.496094 36.34375 35.324219 36.011719 35.324219 L 33.945312 35.324219 L 33.945312 32.191406 L 40.835938 32.191406 Z M 40.835938 35.324219 "/>
<path style=" stroke:none;fill-rule:nonzero;fill:rgb(0%,0%,0%);fill-opacity:1;" d="M 8.453125 54.988281 L 51.546875 54.988281 C 52.0625 54.988281 52.484375 54.570312 52.484375 54.050781 C 52.484375 53.53125 52.0625 53.109375 51.546875 53.109375 L 8.453125 53.109375 C 7.9375 53.109375 7.515625 53.53125 7.515625 54.050781 C 7.515625 54.570312 7.9375 54.988281 8.453125 54.988281 Z M 8.453125 54.988281 "/>
<path style=" stroke:none;fill-rule:nonzero;fill:rgb(0%,0%,0%);fill-opacity:1;" d="M 11.460938 43.589844 C 10.941406 43.589844 10.523438 44.011719 10.523438 44.53125 L 10.523438 49.539062 C 10.523438 50.058594 10.941406 50.480469 11.460938 50.480469 L 13.9375 50.480469 L 15.164062 52.53125 C 15.523438 53.125 16.417969 53.125 16.777344 52.53125 L 18.003906 50.480469 L 20.230469 50.480469 C 20.75 50.480469 21.167969 50.058594 21.167969 49.539062 L 21.167969 44.53125 C 21.167969 44.011719 20.75 43.589844 20.230469 43.589844 Z M 19.289062 48.601562 L 17.472656 48.601562 C 17.144531 48.601562 16.839844 48.773438 16.667969 49.058594 L 15.972656 50.21875 L 15.273438 49.058594 C 15.105469 48.773438 14.796875 48.601562 14.46875 48.601562 L 12.402344 48.601562 L 12.402344 45.46875 L 19.289062 45.46875 Z M 19.289062 48.601562 "/>
</g>
</svg>
