<?xml version="1.0" encoding="UTF-8"?>
<svg xmlns="http://www.w3.org/2000/svg" xmlns:xlink="http://www.w3.org/1999/xlink" width="60pt" height="60pt" viewBox="0 0 60 60" version="1.1">
<g id="surface1">
<path style=" stroke:none;fill-rule:nonzero;fill:rgb(77.647059%,70.588235%,85.490196%);fill-opacity:1;" d="M 47.441406 18.425781 L 59.121094 18.425781 L 59.121094 52.488281 C 59.121094 53.53125 58.699219 54.476562 58.015625 55.160156 C 57.328125 55.84375 56.386719 56.265625 55.339844 56.265625 C 53.253906 56.265625 47.441406 54.574219 47.441406 52.488281 "/>
<path style=" stroke:none;fill-rule:nonzero;fill:rgb(86.666667%,85.490196%,92.54902%);fill-opacity:1;" d="M 55.34375 56.265625 L 15.996094 56.265625 C 13.910156 56.265625 12.214844 54.574219 12.214844 52.488281 L 12.214844 48.4375 L 40.925781 5.199219 L 47.785156 3.734375 C 48.828125 3.734375 49.773438 4.15625 50.457031 4.839844 C 51.140625 5.523438 51.5625 6.46875 51.5625 7.511719 L 51.5625 52.488281 C 51.5625 54.574219 53.253906 56.265625 55.34375 56.265625 Z M 55.34375 56.265625 "/>
<path style=" stroke:none;fill-rule:nonzero;fill:rgb(97.647059%,96.470588%,96.470588%);fill-opacity:1;" d="M 44.003906 47.886719 L 44.003906 7.511719 C 44.003906 5.425781 45.699219 3.734375 47.785156 3.734375 L 4.65625 3.734375 C 2.570312 3.734375 0.878906 5.425781 0.878906 7.511719 L 0.878906 48.4375 L 44.003906 48.4375 "/>
<path style=" stroke:none;fill-rule:nonzero;fill:rgb(91.372549%,11.764706%,38.823529%);fill-opacity:1;" d="M 5.851562 10.234375 L 19.292969 10.234375 L 19.292969 20.871094 L 5.851562 20.871094 Z M 5.851562 10.234375 "/>
<path style=" stroke:none;fill-rule:nonzero;fill:rgb(56.470588%,84.705882%,97.647059%);fill-opacity:1;" d="M 25.359375 26.1875 L 38.800781 26.1875 L 38.800781 36.828125 L 25.359375 36.828125 Z M 25.359375 26.1875 "/>
<path style=" stroke:none;fill-rule:nonzero;fill:rgb(0%,0%,0%);fill-opacity:1;" d="M 59.121094 17.546875 L 52.441406 17.546875 L 52.441406 7.511719 C 52.441406 6.269531 51.957031 5.097656 51.078125 4.21875 C 50.199219 3.339844 49.027344 2.855469 47.785156 2.855469 L 11.042969 2.855469 C 10.558594 2.855469 10.164062 3.25 10.164062 3.734375 C 10.164062 4.21875 10.558594 4.613281 11.042969 4.613281 L 44.144531 4.613281 C 43.507812 5.410156 43.125 6.417969 43.125 7.511719 L 43.125 47.5625 L 1.757812 47.5625 L 1.757812 7.511719 C 1.757812 5.914062 3.058594 4.613281 4.660156 4.613281 L 7.527344 4.613281 C 8.011719 4.613281 8.40625 4.21875 8.40625 3.734375 C 8.40625 3.25 8.011719 2.855469 7.527344 2.855469 L 4.660156 2.855469 C 2.089844 2.855469 0 4.945312 0 7.511719 L 0 48.4375 C 0 48.925781 0.394531 49.320312 0.878906 49.320312 L 11.335938 49.320312 L 11.335938 52.488281 C 11.335938 55.054688 13.425781 57.144531 15.996094 57.144531 L 55.34375 57.144531 C 56.585938 57.144531 57.757812 56.660156 58.636719 55.78125 C 59.515625 54.902344 60 53.730469 60 52.488281 L 60 18.425781 C 60 17.941406 59.605469 17.546875 59.121094 17.546875 Z M 58.242188 52.488281 C 58.242188 53.261719 57.941406 53.992188 57.394531 54.539062 C 56.84375 55.085938 56.117188 55.386719 55.34375 55.386719 C 53.742188 55.386719 52.441406 54.085938 52.441406 52.488281 L 52.441406 32.222656 C 52.441406 32.214844 52.441406 32.210938 52.441406 32.203125 L 52.441406 31.636719 C 52.441406 31.152344 52.046875 30.757812 51.5625 30.757812 C 51.078125 30.757812 50.683594 31.152344 50.683594 31.636719 L 50.683594 52.488281 C 50.683594 53.582031 51.066406 54.589844 51.703125 55.386719 L 15.996094 55.386719 C 14.394531 55.386719 13.09375 54.085938 13.09375 52.488281 L 13.09375 49.320312 L 44.003906 49.320312 C 44.492188 49.320312 44.882812 48.925781 44.882812 48.4375 L 44.882812 7.511719 C 44.882812 5.914062 46.183594 4.613281 47.785156 4.613281 C 48.558594 4.613281 49.285156 4.914062 49.835938 5.460938 C 50.382812 6.011719 50.683594 6.738281 50.683594 7.511719 L 50.683594 28.121094 C 50.683594 28.609375 51.078125 29 51.5625 29 C 52.046875 29 52.441406 28.609375 52.441406 28.121094 L 52.441406 19.304688 L 58.242188 19.304688 Z M 58.242188 52.488281 "/>
<path style=" stroke:none;fill-rule:nonzero;fill:rgb(0%,0%,0%);fill-opacity:1;" d="M 20.171875 10.234375 C 20.171875 9.746094 19.777344 9.355469 19.292969 9.355469 L 5.851562 9.355469 C 5.367188 9.355469 4.972656 9.746094 4.972656 10.234375 L 4.972656 20.871094 C 4.972656 21.355469 5.367188 21.75 5.851562 21.75 L 19.292969 21.75 C 19.777344 21.75 20.171875 21.355469 20.171875 20.871094 Z M 18.414062 19.992188 L 6.730469 19.992188 L 6.730469 11.113281 L 18.414062 11.113281 Z M 18.414062 19.992188 "/>
<path style=" stroke:none;fill-rule:nonzero;fill:rgb(0%,0%,0%);fill-opacity:1;" d="M 19.292969 25.308594 L 5.851562 25.308594 C 5.367188 25.308594 4.972656 25.703125 4.972656 26.1875 C 4.972656 26.675781 5.367188 27.066406 5.851562 27.066406 L 19.292969 27.066406 C 19.777344 27.066406 20.171875 26.675781 20.171875 26.1875 C 20.171875 25.703125 19.777344 25.308594 19.292969 25.308594 Z M 19.292969 25.308594 "/>
<path style=" stroke:none;fill-rule:nonzero;fill:rgb(0%,0%,0%);fill-opacity:1;" d="M 19.292969 30.628906 L 5.851562 30.628906 C 5.367188 30.628906 4.972656 31.023438 4.972656 31.507812 C 4.972656 31.992188 5.367188 32.386719 5.851562 32.386719 L 19.292969 32.386719 C 19.777344 32.386719 20.171875 31.992188 20.171875 31.507812 C 20.171875 31.023438 19.777344 30.628906 19.292969 30.628906 Z M 19.292969 30.628906 "/>
<path style=" stroke:none;fill-rule:nonzero;fill:rgb(0%,0%,0%);fill-opacity:1;" d="M 19.292969 35.949219 L 5.851562 35.949219 C 5.367188 35.949219 4.972656 36.34375 4.972656 36.828125 C 4.972656 37.3125 5.367188 37.707031 5.851562 37.707031 L 19.292969 37.707031 C 19.777344 37.707031 20.171875 37.3125 20.171875 36.828125 C 20.171875 36.34375 19.777344 35.949219 19.292969 35.949219 Z M 19.292969 35.949219 "/>
<path style=" stroke:none;fill-rule:nonzero;fill:rgb(0%,0%,0%);fill-opacity:1;" d="M 19.292969 41.265625 L 5.851562 41.265625 C 5.367188 41.265625 4.972656 41.660156 4.972656 42.144531 C 4.972656 42.632812 5.367188 43.023438 5.851562 43.023438 L 19.292969 43.023438 C 19.777344 43.023438 20.171875 42.632812 20.171875 42.144531 C 20.171875 41.660156 19.777344 41.265625 19.292969 41.265625 Z M 19.292969 41.265625 "/>
<path style=" stroke:none;fill-rule:nonzero;fill:rgb(0%,0%,0%);fill-opacity:1;" d="M 25.359375 11.113281 L 38.800781 11.113281 C 39.285156 11.113281 39.679688 10.71875 39.679688 10.234375 C 39.679688 9.746094 39.285156 9.355469 38.800781 9.355469 L 25.359375 9.355469 C 24.875 9.355469 24.480469 9.746094 24.480469 10.234375 C 24.480469 10.71875 24.875 11.113281 25.359375 11.113281 Z M 25.359375 11.113281 "/>
<path style=" stroke:none;fill-rule:nonzero;fill:rgb(0%,0%,0%);fill-opacity:1;" d="M 25.359375 16.429688 L 38.800781 16.429688 C 39.285156 16.429688 39.679688 16.035156 39.679688 15.550781 C 39.679688 15.066406 39.285156 14.671875 38.800781 14.671875 L 25.359375 14.671875 C 24.875 14.671875 24.480469 15.066406 24.480469 15.550781 C 24.480469 16.035156 24.875 16.429688 25.359375 16.429688 Z M 25.359375 16.429688 "/>
<path style=" stroke:none;fill-rule:nonzero;fill:rgb(0%,0%,0%);fill-opacity:1;" d="M 25.359375 21.75 L 38.800781 21.75 C 39.285156 21.75 39.679688 21.355469 39.679688 20.871094 C 39.679688 20.386719 39.285156 19.992188 38.800781 19.992188 L 25.359375 19.992188 C 24.875 19.992188 24.480469 20.386719 24.480469 20.871094 C 24.480469 21.355469 24.875 21.75 25.359375 21.75 Z M 25.359375 21.75 "/>
<path style=" stroke:none;fill-rule:nonzero;fill:rgb(0%,0%,0%);fill-opacity:1;" d="M 24.480469 36.828125 C 24.480469 37.3125 24.875 37.707031 25.359375 37.707031 L 38.800781 37.707031 C 39.285156 37.707031 39.679688 37.3125 39.679688 36.828125 L 39.679688 26.191406 C 39.679688 25.703125 39.285156 25.3125 38.800781 25.3125 L 25.359375 25.3125 C 24.875 25.3125 24.480469 25.703125 24.480469 26.191406 Z M 26.238281 27.066406 L 37.921875 27.066406 L 37.921875 35.949219 L 26.238281 35.949219 Z M 26.238281 27.066406 "/>
<path style=" stroke:none;fill-rule:nonzero;fill:rgb(0%,0%,0%);fill-opacity:1;" d="M 25.359375 43.023438 L 38.800781 43.023438 C 39.285156 43.023438 39.679688 42.632812 39.679688 42.144531 C 39.679688 41.660156 39.285156 41.265625 38.800781 41.265625 L 25.359375 41.265625 C 24.875 41.265625 24.480469 41.660156 24.480469 42.144531 C 24.480469 42.632812 24.875 43.023438 25.359375 43.023438 Z M 25.359375 43.023438 "/>
</g>
</svg>
