<?xml version="1.0" encoding="UTF-8"?>
<svg xmlns="http://www.w3.org/2000/svg" xmlns:xlink="http://www.w3.org/1999/xlink" width="60pt" height="60pt" viewBox="0 0 60 60" version="1.1">
<g id="surface1">
<path style=" stroke:none;fill-rule:nonzero;fill:rgb(24.705882%,42.745098%,55.686275%);fill-opacity:1;" d="M 12.035156 41.402344 L 9.113281 44.324219 C 8.566406 44.875 8.550781 45.746094 9.078125 46.277344 L 10.160156 47.355469 C 10.6875 47.886719 11.5625 47.871094 12.109375 47.320312 L 15.035156 44.398438 Z M 12.035156 41.402344 "/>
<path style=" stroke:none;fill-rule:nonzero;fill:rgb(21.176471%,36.862745%,49.019608%);fill-opacity:1;" d="M 10.742188 45.835938 L 13.605469 42.96875 L 12.039062 41.402344 L 9.113281 44.324219 C 8.566406 44.875 8.550781 45.746094 9.078125 46.277344 L 10.160156 47.355469 C 10.203125 47.398438 10.25 47.4375 10.296875 47.472656 C 10.140625 46.917969 10.292969 46.285156 10.742188 45.835938 Z M 10.742188 45.835938 "/>
<path style=" stroke:none;fill-rule:nonzero;fill:rgb(27.843137%,48.235294%,61.960784%);fill-opacity:1;" d="M 38.890625 24.253906 L 32.183594 17.546875 C 31.863281 17.226562 31.683594 16.8125 31.644531 16.390625 L 11.804688 38.355469 C 10.984375 39.265625 11.019531 40.660156 11.882812 41.523438 L 14.914062 44.550781 C 15.777344 45.417969 17.167969 45.449219 18.078125 44.628906 L 40.042969 24.792969 C 39.621094 24.753906 39.210938 24.574219 38.890625 24.253906 Z M 38.890625 24.253906 "/>
<path style=" stroke:none;fill-rule:nonzero;fill:rgb(24.705882%,42.745098%,55.686275%);fill-opacity:1;" d="M 14.507812 41.03125 L 34.042969 19.40625 L 32.183594 17.546875 C 31.863281 17.226562 31.683594 16.8125 31.644531 16.390625 L 11.804688 38.355469 C 10.984375 39.265625 11.019531 40.660156 11.882812 41.523438 L 14.273438 43.910156 C 13.703125 43.027344 13.777344 41.84375 14.507812 41.03125 Z M 14.507812 41.03125 "/>
<path style=" stroke:none;fill-rule:nonzero;fill:rgb(95.686275%,86.666667%,27.058824%);fill-opacity:1;" d="M 42.765625 22.402344 L 34.03125 13.671875 C 33.925781 13.5625 33.828125 13.445312 33.746094 13.324219 L 32.160156 14.910156 C 31.414062 15.65625 31.398438 16.867188 32.132812 17.597656 L 38.835938 24.304688 C 39.570312 25.035156 40.78125 25.023438 41.527344 24.277344 L 43.113281 22.691406 C 42.988281 22.605469 42.871094 22.511719 42.765625 22.402344 Z M 42.765625 22.402344 "/>
<path style=" stroke:none;fill-rule:nonzero;fill:rgb(98.823529%,75.686275%,0.392157%);fill-opacity:1;" d="M 35.277344 18.402344 L 37.023438 16.660156 L 34.03125 13.671875 C 33.925781 13.5625 33.828125 13.445312 33.746094 13.324219 L 32.160156 14.910156 C 31.414062 15.65625 31.398438 16.867188 32.132812 17.597656 L 34.636719 20.101562 C 34.597656 19.496094 34.8125 18.871094 35.277344 18.402344 Z M 35.277344 18.402344 "/>
<path style=" stroke:none;fill-rule:nonzero;fill:rgb(24.705882%,42.745098%,55.686275%);fill-opacity:1;" d="M 29.824219 27.730469 L 28.707031 26.609375 C 28.367188 26.269531 28.320312 25.75 28.5625 25.359375 L 24.53125 29.386719 C 24.144531 29.777344 24.144531 30.414062 24.53125 30.800781 L 25.632812 31.902344 C 26.023438 32.292969 26.660156 32.292969 27.046875 31.902344 L 31.078125 27.871094 C 30.6875 28.113281 30.164062 28.066406 29.824219 27.730469 Z M 29.824219 27.730469 "/>
<path style=" stroke:none;fill-rule:nonzero;fill:rgb(21.176471%,36.862745%,49.019608%);fill-opacity:1;" d="M 25.71875 30.785156 L 29.300781 27.203125 L 28.707031 26.609375 C 28.367188 26.269531 28.320312 25.75 28.5625 25.359375 L 24.53125 29.386719 C 24.144531 29.777344 24.144531 30.414062 24.53125 30.800781 L 25.398438 31.667969 C 25.371094 31.351562 25.480469 31.027344 25.71875 30.785156 Z M 25.71875 30.785156 "/>
<path style=" stroke:none;fill-rule:nonzero;fill:rgb(97.254902%,48.627451%,40.784314%);fill-opacity:1;" d="M 33.640625 23.898438 L 32.535156 22.796875 C 32.148438 22.410156 31.511719 22.410156 31.125 22.796875 L 28.535156 25.386719 C 28.144531 25.773438 28.144531 26.410156 28.535156 26.800781 L 29.636719 27.902344 C 30.023438 28.289062 30.660156 28.289062 31.050781 27.902344 L 33.640625 25.3125 C 34.027344 24.921875 34.027344 24.289062 33.640625 23.898438 Z M 33.640625 23.898438 "/>
<path style=" stroke:none;fill-rule:nonzero;fill:rgb(92.54902%,38.431373%,36.862745%);fill-opacity:1;" d="M 29.609375 26.625 L 32.328125 23.902344 C 32.613281 23.617188 33.027344 23.535156 33.386719 23.648438 L 32.535156 22.796875 C 32.148438 22.410156 31.511719 22.410156 31.125 22.796875 L 28.535156 25.386719 C 28.144531 25.773438 28.144531 26.410156 28.535156 26.800781 L 29.328125 27.59375 C 29.253906 27.253906 29.347656 26.886719 29.609375 26.625 Z M 29.609375 26.625 "/>
<path style=" stroke:none;fill-rule:nonzero;fill:rgb(85.882353%,92.941176%,100%);fill-opacity:1;" d="M 52.441406 4.21875 C 48.089844 -0.253906 40.933594 -0.292969 36.535156 4.105469 C 34.347656 6.292969 33.257812 9.164062 33.265625 12.027344 C 33.265625 12.667969 33.519531 13.28125 33.972656 13.730469 L 42.703125 22.464844 C 43.15625 22.914062 43.769531 23.167969 44.40625 23.171875 C 47.234375 23.175781 50.0625 22.117188 52.234375 19.992188 C 56.617188 15.710938 56.710938 8.613281 52.441406 4.21875 Z M 52.441406 4.21875 "/>
<path style=" stroke:none;fill-rule:nonzero;fill:rgb(70.980392%,86.27451%,100%);fill-opacity:1;" d="M 36.808594 16.007812 C 36.800781 13.046875 37.929688 10.082031 40.191406 7.820312 C 43.839844 4.171875 49.324219 3.476562 53.675781 5.738281 C 53.3125 5.207031 52.90625 4.695312 52.441406 4.21875 C 48.089844 -0.253906 40.933594 -0.292969 36.535156 4.105469 C 34.347656 6.292969 33.257812 9.164062 33.265625 12.027344 C 33.265625 12.667969 33.519531 13.28125 33.972656 13.730469 L 36.898438 16.660156 C 36.84375 16.449219 36.808594 16.230469 36.808594 16.007812 Z M 36.808594 16.007812 "/>
<path style=" stroke:none;fill-rule:nonzero;fill:rgb(0%,0%,0%);fill-opacity:1;" d="M 34.28125 25.972656 C 35.015625 25.242188 35.011719 24.046875 34.28125 23.316406 L 33.179688 22.214844 C 32.457031 21.496094 31.265625 21.472656 30.523438 22.214844 C 30.285156 22.453125 24.195312 28.542969 23.933594 28.808594 C 23.199219 29.539062 23.199219 30.730469 23.933594 31.464844 L 25.035156 32.566406 C 25.765625 33.296875 26.957031 33.296875 27.691406 32.566406 C 30.054688 30.203125 31.964844 28.289062 34.28125 25.972656 Z M 30.449219 27.320312 C 30.421875 27.347656 30.386719 27.355469 30.363281 27.355469 C 30.339844 27.355469 30.308594 27.347656 30.28125 27.320312 L 29.175781 26.21875 C 29.132812 26.171875 29.132812 26.09375 29.175781 26.046875 L 31.765625 23.457031 C 31.789062 23.4375 31.820312 23.425781 31.851562 23.425781 C 31.882812 23.425781 31.914062 23.4375 31.9375 23.457031 L 33.039062 24.5625 C 33.085938 24.605469 33.085938 24.6875 33.039062 24.730469 Z M 26.445312 31.324219 C 26.402344 31.367188 26.324219 31.367188 26.277344 31.324219 L 25.175781 30.21875 C 25.128906 30.175781 25.128906 30.09375 25.175781 30.050781 L 27.855469 27.371094 C 27.878906 27.402344 27.90625 27.433594 27.933594 27.460938 L 29.035156 28.5625 C 29.066406 28.59375 29.097656 28.617188 29.125 28.644531 Z M 26.445312 31.324219 "/>
<path style=" stroke:none;fill-rule:nonzero;fill:rgb(0%,0%,0%);fill-opacity:1;" d="M 21.789062 33.46875 L 20.789062 34.464844 C 20.445312 34.808594 20.445312 35.367188 20.789062 35.710938 C 20.960938 35.882812 21.183594 35.96875 21.410156 35.96875 C 21.636719 35.96875 21.859375 35.882812 22.03125 35.710938 L 23.03125 34.710938 C 23.375 34.367188 23.375 33.8125 23.03125 33.46875 C 22.6875 33.125 22.128906 33.125 21.789062 33.46875 Z M 21.789062 33.46875 "/>
<path style=" stroke:none;fill-rule:nonzero;fill:rgb(0%,0%,0%);fill-opacity:1;" d="M 5.15625 58.058594 C 7.335938 60.238281 10.898438 60.25 13.089844 58.082031 L 23.859375 47.441406 C 25.363281 45.957031 27.800781 45.964844 29.296875 47.457031 C 30.808594 48.972656 30.804688 51.421875 29.28125 52.929688 L 23.644531 58.496094 C 23.300781 58.835938 23.296875 59.394531 23.636719 59.738281 C 23.976562 60.085938 24.535156 60.085938 24.878906 59.746094 L 30.515625 54.179688 C 32.734375 51.988281 32.742188 48.417969 30.539062 46.214844 C 28.363281 44.039062 24.8125 44.027344 22.625 46.191406 L 11.855469 56.832031 C 10.347656 58.324219 7.898438 58.316406 6.398438 56.816406 C 4.886719 55.300781 4.886719 52.855469 6.398438 51.34375 L 9.644531 48.097656 C 10.53125 48.894531 11.882812 48.855469 12.71875 48.019531 L 15 45.734375 C 16.171875 46.394531 17.65625 46.253906 18.6875 45.324219 L 28.863281 36.140625 C 29.222656 35.8125 29.25 35.257812 28.925781 34.898438 C 28.597656 34.539062 28.042969 34.507812 27.683594 34.835938 L 17.507812 44.019531 C 16.949219 44.527344 16.089844 44.503906 15.554688 43.972656 L 15.539062 43.957031 C 15.539062 43.953125 15.539062 43.953125 15.539062 43.953125 L 12.527344 40.941406 C 11.992188 40.40625 11.972656 39.550781 12.476562 38.988281 L 31.363281 18.074219 C 31.414062 18.136719 31.46875 18.195312 31.527344 18.253906 C 31.527344 18.253906 31.53125 18.257812 31.53125 18.261719 C 35.121094 21.847656 33.945312 20.671875 38.238281 24.964844 C 38.238281 24.964844 38.238281 24.96875 38.238281 24.96875 C 38.296875 25.027344 38.359375 25.082031 38.421875 25.132812 C 38.421875 25.132812 38.421875 25.136719 38.425781 25.136719 L 30.730469 32.082031 C 30.371094 32.40625 30.34375 32.964844 30.667969 33.324219 C 30.992188 33.683594 31.550781 33.710938 31.910156 33.386719 L 40.347656 25.769531 C 41.027344 25.730469 41.660156 25.449219 42.144531 24.964844 L 43.242188 23.867188 C 43.613281 24.011719 44.015625 24.089844 44.425781 24.089844 L 44.453125 24.089844 C 47.621094 24.089844 50.609375 22.875 52.871094 20.660156 C 56.976562 16.648438 57.671875 10.246094 54.527344 5.441406 C 54.261719 5.035156 53.714844 4.917969 53.308594 5.1875 C 52.902344 5.453125 52.789062 5.996094 53.054688 6.402344 C 55.742188 10.511719 55.148438 15.976562 51.644531 19.402344 C 49.710938 21.292969 47.160156 22.332031 44.453125 22.332031 C 44.445312 22.332031 44.4375 22.332031 44.429688 22.332031 C 44.011719 22.332031 43.628906 22.164062 43.347656 21.882812 L 34.617188 13.152344 C 34.335938 12.871094 34.167969 12.488281 34.164062 12.066406 C 34.160156 9.3125 35.230469 6.71875 37.179688 4.769531 C 40.785156 1.164062 46.417969 0.792969 50.4375 3.675781 C 50.832031 3.960938 51.382812 3.867188 51.664062 3.472656 C 51.945312 3.078125 51.855469 2.53125 51.460938 2.246094 C 46.738281 -1.140625 40.148438 -0.6875 35.9375 3.527344 C 33.652344 5.808594 32.398438 8.84375 32.40625 12.070312 C 32.410156 12.484375 32.484375 12.882812 32.628906 13.257812 L 31.53125 14.355469 C 31.035156 14.851562 30.769531 15.496094 30.730469 16.148438 L 11.171875 37.8125 C 10.238281 38.847656 10.105469 40.335938 10.761719 41.496094 L 8.480469 43.78125 C 7.636719 44.621094 7.613281 45.976562 8.402344 46.851562 L 5.15625 50.097656 C 2.960938 52.292969 2.960938 55.863281 5.15625 58.058594 Z M 32.773438 15.597656 L 33.675781 14.699219 L 41.800781 22.820312 L 40.898438 23.722656 C 40.515625 24.109375 39.882812 24.113281 39.492188 23.734375 C 39.488281 23.730469 39.484375 23.726562 39.480469 23.722656 L 32.773438 17.015625 C 32.773438 17.015625 32.773438 17.015625 32.773438 17.011719 C 32.386719 16.625 32.386719 15.988281 32.773438 15.597656 Z M 9.722656 45.023438 L 11.921875 42.824219 L 13.675781 44.578125 L 11.476562 46.777344 C 11.289062 46.960938 10.988281 46.960938 10.804688 46.777344 C 10.398438 46.375 10.125 46.097656 9.722656 45.695312 C 9.535156 45.511719 9.535156 45.207031 9.722656 45.023438 Z M 9.722656 45.023438 "/>
</g>
</svg>
