<?xml version="1.0" encoding="UTF-8"?>
<svg xmlns="http://www.w3.org/2000/svg" xmlns:xlink="http://www.w3.org/1999/xlink" width="60pt" height="60pt" viewBox="0 0 60 60" version="1.1">
<g id="surface1">
<path style=" stroke:none;fill-rule:nonzero;fill:rgb(91.372549%,11.764706%,38.823529%);fill-opacity:1;" d="M 56.484375 16.171875 L 3.515625 16.171875 C 2.222656 16.171875 1.171875 17.222656 1.171875 18.515625 L 1.171875 56.484375 C 1.171875 57.777344 2.222656 58.828125 3.515625 58.828125 L 56.484375 58.828125 C 57.777344 58.828125 58.828125 57.777344 58.828125 56.484375 L 58.828125 18.515625 C 58.828125 17.222656 57.777344 16.171875 56.484375 16.171875 Z M 56.484375 16.171875 "/>
<path style=" stroke:none;fill-rule:nonzero;fill:rgb(97.254902%,97.254902%,97.254902%);fill-opacity:1;" d="M 7.734375 22.734375 L 42.421875 22.734375 L 42.421875 52.265625 L 7.734375 52.265625 Z M 7.734375 22.734375 "/>
<path style=" stroke:none;fill-rule:nonzero;fill:rgb(83.529412%,91.764706%,47.843137%);fill-opacity:1;" d="M 7.734375 22.734375 L 16.40625 22.734375 L 16.40625 52.265625 L 7.734375 52.265625 Z M 7.734375 22.734375 "/>
<path style=" stroke:none;fill-rule:nonzero;fill:rgb(74.901961%,89.803922%,96.470588%);fill-opacity:1;" d="M 16.40625 22.734375 L 25.078125 22.734375 L 25.078125 52.265625 L 16.40625 52.265625 Z M 16.40625 22.734375 "/>
<path style=" stroke:none;fill-rule:nonzero;fill:rgb(94.117647%,78.823529%,50.196078%);fill-opacity:1;" d="M 25.078125 22.734375 L 33.75 22.734375 L 33.75 52.265625 L 25.078125 52.265625 Z M 25.078125 22.734375 "/>
<path style=" stroke:none;fill-rule:nonzero;fill:rgb(100%,47.843137%,47.843137%);fill-opacity:1;" d="M 33.75 22.734375 L 42.421875 22.734375 L 42.421875 52.265625 L 33.75 52.265625 Z M 33.75 22.734375 "/>
<path style=" stroke:none;fill-rule:nonzero;fill:rgb(94.117647%,78.823529%,50.196078%);fill-opacity:1;" d="M 54.140625 48.75 C 54.140625 50.691406 52.566406 52.265625 50.625 52.265625 C 48.683594 52.265625 47.109375 50.691406 47.109375 48.75 C 47.109375 46.808594 48.683594 45.234375 50.625 45.234375 C 52.566406 45.234375 54.140625 46.808594 54.140625 48.75 Z M 54.140625 48.75 "/>
<path style=" stroke:none;fill-rule:nonzero;fill:rgb(71.764706%,73.72549%,80.784314%);fill-opacity:1;" d="M 35.742188 16.171875 C 35.742188 13 33.171875 10.429688 30 10.429688 C 26.828125 10.429688 24.257812 13 24.257812 16.171875 Z M 35.742188 16.171875 "/>
<path style=" stroke:none;fill-rule:nonzero;fill:rgb(0%,0%,0%);fill-opacity:1;" d="M 56.484375 15 L 36.8125 15 C 36.636719 13.984375 36.242188 13.042969 35.675781 12.226562 L 45.902344 2 C 46.359375 1.542969 46.359375 0.800781 45.902344 0.34375 C 45.445312 -0.113281 44.703125 -0.113281 44.246094 0.34375 L 34.027344 10.558594 C 32.894531 9.742188 31.503906 9.257812 30 9.257812 C 28.519531 9.257812 27.148438 9.726562 26.023438 10.523438 L 20.757812 5.257812 C 20.300781 4.800781 19.558594 4.800781 19.101562 5.257812 C 18.644531 5.714844 18.644531 6.457031 19.101562 6.914062 L 24.363281 12.175781 C 23.773438 13.003906 23.363281 13.960938 23.1875 15 L 3.515625 15 C 1.578125 15 0 16.578125 0 18.515625 L 0 56.484375 C 0 58.421875 1.578125 60 3.515625 60 L 56.484375 60 C 58.421875 60 60 58.421875 60 56.484375 L 60 18.515625 C 60 16.578125 58.421875 15 56.484375 15 Z M 30 11.601562 C 32.113281 11.601562 33.898438 13.046875 34.417969 15 L 25.582031 15 C 26.101562 13.046875 27.886719 11.601562 30 11.601562 Z M 57.65625 56.484375 C 57.65625 57.128906 57.128906 57.65625 56.484375 57.65625 L 3.515625 57.65625 C 2.871094 57.65625 2.34375 57.128906 2.34375 56.484375 L 2.34375 18.515625 C 2.34375 17.871094 2.871094 17.34375 3.515625 17.34375 L 56.484375 17.34375 C 57.128906 17.34375 57.65625 17.871094 57.65625 18.515625 Z M 57.65625 56.484375 "/>
<path style=" stroke:none;fill-rule:nonzero;fill:rgb(0%,0%,0%);fill-opacity:1;" d="M 42.421875 21.5625 L 7.734375 21.5625 C 7.085938 21.5625 6.5625 22.085938 6.5625 22.734375 L 6.5625 52.265625 C 6.5625 52.914062 7.085938 53.4375 7.734375 53.4375 L 42.421875 53.4375 C 43.070312 53.4375 43.59375 52.914062 43.59375 52.265625 L 43.59375 22.734375 C 43.59375 22.085938 43.070312 21.5625 42.421875 21.5625 Z M 32.578125 23.90625 L 32.578125 51.09375 L 26.25 51.09375 L 26.25 23.90625 Z M 8.90625 23.90625 L 15.234375 23.90625 L 15.234375 32.226562 C 15.234375 32.875 15.757812 33.398438 16.40625 33.398438 C 17.054688 33.398438 17.578125 32.875 17.578125 32.226562 L 17.578125 23.90625 L 23.90625 23.90625 L 23.90625 51.09375 L 17.578125 51.09375 L 17.578125 42.773438 C 17.578125 42.125 17.054688 41.601562 16.40625 41.601562 C 15.757812 41.601562 15.234375 42.125 15.234375 42.773438 L 15.234375 51.09375 L 8.90625 51.09375 Z M 41.25 51.09375 L 34.921875 51.09375 L 34.921875 23.90625 L 41.25 23.90625 Z M 41.25 51.09375 "/>
<path style=" stroke:none;fill-rule:nonzero;fill:rgb(0%,0%,0%);fill-opacity:1;" d="M 50.625 44.0625 C 48.039062 44.0625 45.9375 46.164062 45.9375 48.75 C 45.9375 51.335938 48.039062 53.4375 50.625 53.4375 C 53.210938 53.4375 55.3125 51.335938 55.3125 48.75 C 55.3125 46.164062 53.210938 44.0625 50.625 44.0625 Z M 50.625 51.09375 C 49.332031 51.09375 48.28125 50.042969 48.28125 48.75 C 48.28125 47.457031 49.332031 46.40625 50.625 46.40625 C 51.917969 46.40625 52.96875 47.457031 52.96875 48.75 C 52.96875 50.042969 51.917969 51.09375 50.625 51.09375 Z M 50.625 51.09375 "/>
<path style=" stroke:none;fill-rule:nonzero;fill:rgb(0%,0%,0%);fill-opacity:1;" d="M 54.140625 38.4375 L 47.109375 38.4375 C 46.460938 38.4375 45.9375 38.960938 45.9375 39.609375 C 45.9375 40.257812 46.460938 40.78125 47.109375 40.78125 L 54.140625 40.78125 C 54.789062 40.78125 55.3125 40.257812 55.3125 39.609375 C 55.3125 38.960938 54.789062 38.4375 54.140625 38.4375 Z M 54.140625 38.4375 "/>
<path style=" stroke:none;fill-rule:nonzero;fill:rgb(0%,0%,0%);fill-opacity:1;" d="M 54.140625 32.8125 L 47.109375 32.8125 C 46.460938 32.8125 45.9375 33.335938 45.9375 33.984375 C 45.9375 34.632812 46.460938 35.15625 47.109375 35.15625 L 54.140625 35.15625 C 54.789062 35.15625 55.3125 34.632812 55.3125 33.984375 C 55.3125 33.335938 54.789062 32.8125 54.140625 32.8125 Z M 54.140625 32.8125 "/>
<path style=" stroke:none;fill-rule:nonzero;fill:rgb(0%,0%,0%);fill-opacity:1;" d="M 54.140625 27.1875 L 47.109375 27.1875 C 46.460938 27.1875 45.9375 27.710938 45.9375 28.359375 C 45.9375 29.007812 46.460938 29.53125 47.109375 29.53125 L 54.140625 29.53125 C 54.789062 29.53125 55.3125 29.007812 55.3125 28.359375 C 55.3125 27.710938 54.789062 27.1875 54.140625 27.1875 Z M 54.140625 27.1875 "/>
<path style=" stroke:none;fill-rule:nonzero;fill:rgb(0%,0%,0%);fill-opacity:1;" d="M 54.140625 21.5625 L 47.109375 21.5625 C 46.460938 21.5625 45.9375 22.085938 45.9375 22.734375 C 45.9375 23.382812 46.460938 23.90625 47.109375 23.90625 L 54.140625 23.90625 C 54.789062 23.90625 55.3125 23.382812 55.3125 22.734375 C 55.3125 22.085938 54.789062 21.5625 54.140625 21.5625 Z M 54.140625 21.5625 "/>
<path style=" stroke:none;fill-rule:nonzero;fill:rgb(0%,0%,0%);fill-opacity:1;" d="M 16.40625 38.671875 C 16.714844 38.671875 17.015625 38.546875 17.234375 38.328125 C 17.453125 38.109375 17.578125 37.808594 17.578125 37.5 C 17.578125 37.191406 17.453125 36.890625 17.234375 36.671875 C 17.015625 36.453125 16.714844 36.328125 16.40625 36.328125 C 16.097656 36.328125 15.796875 36.453125 15.578125 36.671875 C 15.359375 36.890625 15.234375 37.191406 15.234375 37.5 C 15.234375 37.808594 15.359375 38.109375 15.578125 38.328125 C 15.796875 38.546875 16.097656 38.671875 16.40625 38.671875 Z M 16.40625 38.671875 "/>
</g>
</svg>
