<?xml version="1.0" encoding="UTF-8"?>
<svg xmlns="http://www.w3.org/2000/svg" xmlns:xlink="http://www.w3.org/1999/xlink" width="60pt" height="60pt" viewBox="0 0 60 60" version="1.1">
<g id="surface1">
<path style=" stroke:none;fill-rule:nonzero;fill:rgb(26.27451%,30.196078%,34.901961%);fill-opacity:1;" d="M 22.25 45.109375 L 5.03125 45.109375 L 5.03125 13.136719 C 5.03125 11.269531 6.542969 9.761719 8.40625 9.761719 L 51.59375 9.761719 C 53.457031 9.761719 54.96875 11.269531 54.96875 13.136719 L 54.96875 45.109375 L 35.394531 45.109375 "/>
<path style=" stroke:none;fill-rule:nonzero;fill:rgb(23.137255%,26.27451%,30.196078%);fill-opacity:1;" d="M 22.25 43 L 5.03125 43 L 5.03125 45.109375 L 54.96875 45.109375 L 54.96875 43 Z M 22.25 43 "/>
<path style=" stroke:none;fill-rule:nonzero;fill:rgb(74.509804%,84.705882%,98.431373%);fill-opacity:1;" d="M 8.976562 13.703125 L 51.023438 13.703125 L 51.023438 46.96875 L 8.976562 46.96875 Z M 8.976562 13.703125 "/>
<path style=" stroke:none;fill-rule:nonzero;fill:rgb(74.509804%,84.705882%,98.431373%);fill-opacity:1;" d="M 8.976562 13.703125 L 51.023438 13.703125 L 51.023438 46.96875 L 8.976562 46.96875 Z M 8.976562 13.703125 "/>
<path style=" stroke:none;fill-rule:nonzero;fill:rgb(63.921569%,79.215686%,96.862745%);fill-opacity:1;" d="M 8.976562 43 L 51.023438 43 L 51.023438 46.96875 L 8.976562 46.96875 Z M 8.976562 43 "/>
<path style=" stroke:none;fill-rule:nonzero;fill:rgb(92.54902%,91.764706%,92.54902%);fill-opacity:1;" d="M 35.394531 45.109375 L 35.394531 45.785156 C 35.394531 46.4375 34.867188 46.96875 34.210938 46.96875 L 23.433594 46.96875 C 22.78125 46.96875 22.25 46.4375 22.25 45.785156 L 22.25 45.109375 L 0.9375 45.109375 L 0.9375 47.78125 C 0.9375 49.140625 2.039062 50.238281 3.394531 50.238281 L 56.605469 50.238281 C 57.960938 50.238281 59.0625 49.140625 59.0625 47.78125 L 59.0625 45.109375 Z M 35.394531 45.109375 "/>
<path style=" stroke:none;fill-rule:nonzero;fill:rgb(85.490196%,84.705882%,85.882353%);fill-opacity:1;" d="M 56.605469 48.128906 L 3.394531 48.128906 C 2.039062 48.128906 0.9375 47.03125 0.9375 45.671875 L 0.9375 47.78125 C 0.9375 49.140625 2.039062 50.238281 3.394531 50.238281 L 56.605469 50.238281 C 57.960938 50.238281 59.0625 49.140625 59.0625 47.78125 L 59.0625 45.671875 C 59.0625 47.03125 57.960938 48.128906 56.605469 48.128906 Z M 56.605469 48.128906 "/>
<path style=" stroke:none;fill-rule:nonzero;fill:rgb(91.372549%,11.764706%,38.823529%);fill-opacity:1;" d="M 39.578125 29.40625 C 39.578125 34.695312 35.289062 38.984375 30 38.984375 C 24.710938 38.984375 20.421875 34.695312 20.421875 29.40625 C 20.421875 24.117188 24.710938 19.828125 30 19.828125 C 35.289062 19.828125 39.578125 24.117188 39.578125 29.40625 Z M 39.578125 29.40625 "/>
<path style=" stroke:none;fill-rule:nonzero;fill:rgb(86.27451%,28.235294%,34.117647%);fill-opacity:1;" d="M 30 36.875 C 25.066406 36.875 21.007812 33.144531 20.480469 28.351562 C 20.441406 28.699219 20.421875 29.050781 20.421875 29.40625 C 20.421875 34.695312 24.710938 38.984375 30 38.984375 C 35.289062 38.984375 39.578125 34.695312 39.578125 29.40625 C 39.578125 29.050781 39.554688 28.699219 39.519531 28.351562 C 38.992188 33.144531 34.933594 36.875 30 36.875 Z M 30 36.875 "/>
<path style=" stroke:none;fill-rule:nonzero;fill:rgb(92.54902%,91.764706%,92.54902%);fill-opacity:1;" d="M 28 33.636719 L 33.746094 29.40625 L 28 25.175781 Z M 28 33.636719 "/>
<path style=" stroke:none;fill-rule:nonzero;fill:rgb(85.490196%,84.705882%,85.882353%);fill-opacity:1;" d="M 28 31.527344 L 28 33.636719 L 33.746094 29.40625 L 32.316406 28.351562 Z M 28 31.527344 "/>
<path style=" stroke:none;fill-rule:nonzero;fill:rgb(0%,0%,0%);fill-opacity:1;" d="M 4.984375 24.78125 C 5.46875 24.78125 5.863281 24.386719 5.863281 23.902344 L 5.863281 13.101562 C 5.863281 11.722656 6.984375 10.601562 8.363281 10.601562 L 51.636719 10.601562 C 53.015625 10.601562 54.136719 11.722656 54.136719 13.101562 L 54.136719 19.675781 C 54.136719 20.160156 54.53125 20.554688 55.015625 20.554688 C 55.503906 20.554688 55.898438 20.160156 55.898438 19.675781 L 55.898438 13.101562 C 55.898438 10.75 53.984375 8.839844 51.636719 8.839844 L 8.363281 8.839844 C 6.015625 8.839844 4.105469 10.75 4.105469 13.101562 L 4.105469 23.902344 C 4.105469 24.390625 4.496094 24.78125 4.984375 24.78125 Z M 4.984375 24.78125 "/>
<path style=" stroke:none;fill-rule:nonzero;fill:rgb(0%,0%,0%);fill-opacity:1;" d="M 59.121094 44.257812 L 55.894531 44.257812 L 55.894531 23.199219 C 55.894531 22.710938 55.503906 22.316406 55.015625 22.316406 C 54.53125 22.316406 54.136719 22.710938 54.136719 23.199219 L 54.136719 44.257812 L 51.945312 44.257812 L 51.945312 38.792969 C 51.945312 38.308594 51.550781 37.914062 51.066406 37.914062 C 50.578125 37.914062 50.183594 38.308594 50.183594 38.792969 L 50.183594 44.257812 L 35.40625 44.257812 C 34.921875 44.257812 34.527344 44.652344 34.527344 45.136719 L 34.527344 45.816406 C 34.527344 45.984375 34.386719 46.121094 34.21875 46.121094 L 23.421875 46.121094 C 23.253906 46.121094 23.113281 45.984375 23.113281 45.816406 L 23.113281 45.136719 C 23.113281 44.652344 22.71875 44.257812 22.234375 44.257812 L 9.816406 44.257812 L 9.816406 14.550781 L 50.183594 14.550781 L 50.183594 35.273438 C 50.183594 35.757812 50.578125 36.152344 51.066406 36.152344 C 51.550781 36.152344 51.945312 35.757812 51.945312 35.273438 L 51.945312 13.671875 C 51.945312 13.183594 51.550781 12.789062 51.066406 12.789062 L 8.933594 12.789062 C 8.449219 12.789062 8.054688 13.183594 8.054688 13.671875 L 8.054688 44.257812 L 5.863281 44.257812 L 5.863281 27.425781 C 5.863281 26.9375 5.46875 26.542969 4.984375 26.542969 C 4.496094 26.542969 4.101562 26.9375 4.101562 27.425781 L 4.101562 44.257812 L 0.878906 44.257812 C 0.394531 44.257812 0 44.652344 0 45.136719 L 0 47.816406 C 0 49.660156 1.5 51.160156 3.34375 51.160156 L 56.65625 51.160156 C 58.5 51.160156 60 49.660156 60 47.816406 L 60 45.136719 C 60 44.652344 59.605469 44.257812 59.121094 44.257812 Z M 58.238281 47.816406 C 58.238281 48.6875 57.527344 49.398438 56.65625 49.398438 L 3.34375 49.398438 C 2.472656 49.398438 1.761719 48.6875 1.761719 47.816406 L 1.761719 46.019531 L 21.363281 46.019531 C 21.464844 47.0625 22.351562 47.882812 23.421875 47.882812 L 34.21875 47.882812 C 35.292969 47.882812 36.175781 47.0625 36.277344 46.019531 L 58.238281 46.019531 Z M 58.238281 47.816406 "/>
<path style=" stroke:none;fill-rule:nonzero;fill:rgb(0%,0%,0%);fill-opacity:1;" d="M 24.460938 37.269531 C 24.21875 37.691406 24.363281 38.226562 24.785156 38.46875 C 26.363281 39.382812 28.167969 39.863281 30 39.863281 C 35.765625 39.863281 40.457031 35.171875 40.457031 29.40625 C 40.457031 23.640625 35.765625 18.949219 30 18.949219 C 24.234375 18.949219 19.542969 23.640625 19.542969 29.40625 C 19.542969 31.792969 20.367188 34.125 21.867188 35.976562 C 22.171875 36.355469 22.726562 36.414062 23.101562 36.109375 C 23.480469 35.804688 23.539062 35.25 23.234375 34.871094 C 21.96875 33.308594 21.300781 31.417969 21.300781 29.40625 C 21.300781 24.609375 25.203125 20.707031 30 20.707031 C 34.796875 20.707031 38.699219 24.609375 38.699219 29.40625 C 38.699219 34.203125 34.796875 38.105469 30 38.105469 C 28.476562 38.105469 26.976562 37.703125 25.660156 36.949219 C 25.242188 36.707031 24.703125 36.847656 24.460938 37.269531 Z M 24.460938 37.269531 "/>
<path style=" stroke:none;fill-rule:nonzero;fill:rgb(0%,0%,0%);fill-opacity:1;" d="M 28 34.515625 C 28.183594 34.515625 28.367188 34.457031 28.519531 34.34375 L 34.269531 30.113281 C 34.492188 29.949219 34.625 29.683594 34.625 29.40625 C 34.625 29.125 34.492188 28.863281 34.269531 28.699219 L 28.519531 24.46875 C 28.253906 24.269531 27.898438 24.242188 27.601562 24.390625 C 27.308594 24.539062 27.121094 24.84375 27.121094 25.175781 L 27.121094 33.636719 C 27.121094 33.96875 27.308594 34.269531 27.601562 34.417969 C 27.726562 34.484375 27.863281 34.515625 28 34.515625 Z M 28.878906 26.914062 L 32.265625 29.40625 L 28.878906 31.898438 Z M 28.878906 26.914062 "/>
</g>
</svg>
