<?xml version="1.0" encoding="UTF-8"?>
<svg xmlns="http://www.w3.org/2000/svg" xmlns:xlink="http://www.w3.org/1999/xlink" width="60pt" height="60pt" viewBox="0 0 60 60" version="1.1">
<g id="surface1">
<path style=" stroke:none;fill-rule:nonzero;fill:rgb(96.862745%,81.176471%,61.176471%);fill-opacity:1;" d="M 46.425781 18.875 C 46.429688 18.871094 46.433594 18.867188 46.433594 18.859375 L 44.597656 16.214844 C 44.277344 15.757812 43.753906 15.484375 43.199219 15.484375 C 40.011719 15.484375 15.089844 15.484375 12.042969 15.484375 C 11.46875 15.484375 10.929688 15.765625 10.605469 16.238281 L 3.570312 26.355469 C 3.765625 26.148438 4.042969 26.015625 4.355469 26.015625 C 5.960938 26.015625 50.242188 26.015625 51.054688 26.015625 Z M 46.425781 18.875 "/>
<path style=" stroke:none;fill-rule:nonzero;fill:rgb(91.764706%,72.156863%,51.372549%);fill-opacity:1;" d="M 14.472656 16.238281 C 14.800781 15.765625 15.339844 15.484375 15.914062 15.484375 L 12.042969 15.484375 C 11.46875 15.484375 10.929688 15.765625 10.601562 16.238281 L 3.570312 26.355469 C 3.765625 26.148438 4.042969 26.015625 4.355469 26.015625 L 7.675781 26.015625 Z M 14.472656 16.238281 "/>
<path style=" stroke:none;fill-rule:nonzero;fill:rgb(91.764706%,72.156863%,51.372549%);fill-opacity:1;" d="M 50.863281 25.898438 C 39.472656 25.898438 14.644531 25.898438 13.5625 25.898438 L 4.355469 25.898438 C 3.757812 25.898438 3.277344 26.382812 3.277344 26.976562 C 3.277344 27.195312 3.277344 55.988281 3.277344 56.277344 C 3.277344 57.847656 4.550781 59.121094 6.117188 59.121094 L 6.394531 59.121094 C 8.242188 59.121094 47.25 59.121094 49.097656 59.121094 C 50.664062 59.121094 51.9375 57.847656 51.9375 56.277344 C 51.9375 55.101562 51.9375 28.828125 51.9375 26.976562 C 51.9375 26.382812 51.457031 25.898438 50.863281 25.898438 Z M 50.863281 25.898438 "/>
<path style=" stroke:none;fill-rule:nonzero;fill:rgb(87.843137%,65.490196%,45.098039%);fill-opacity:1;" d="M 6.792969 56.277344 C 6.792969 55.101562 6.792969 28.828125 6.792969 26.976562 C 6.792969 26.382812 7.273438 25.898438 7.867188 25.898438 L 4.355469 25.898438 C 3.757812 25.898438 3.277344 26.382812 3.277344 26.976562 C 3.277344 27.195312 3.277344 55.988281 3.277344 56.277344 C 3.277344 57.847656 4.550781 59.121094 6.117188 59.121094 L 9.632812 59.121094 C 8.0625 59.121094 6.792969 57.847656 6.792969 56.277344 Z M 6.792969 56.277344 "/>
<path style=" stroke:none;fill-rule:nonzero;fill:rgb(91.372549%,11.764706%,38.823529%);fill-opacity:1;" d="M 23.382812 20.449219 L 18.398438 17.570312 C 17.804688 17.226562 17.597656 16.464844 17.941406 15.871094 L 26.238281 1.503906 C 26.582031 0.90625 27.34375 0.703125 27.9375 1.046875 L 38.746094 7.285156 C 39.34375 7.628906 39.546875 8.390625 39.203125 8.988281 L 32.585938 20.449219 Z M 23.382812 20.449219 "/>
<path style=" stroke:none;fill-rule:nonzero;fill:rgb(90.196078%,17.647059%,42.352941%);fill-opacity:1;" d="M 29.324219 3.328125 C 29.597656 2.855469 30.097656 2.589844 30.609375 2.585938 L 27.9375 1.046875 C 27.34375 0.703125 26.582031 0.90625 26.238281 1.503906 L 17.941406 15.871094 C 17.597656 16.464844 17.804688 17.226562 18.398438 17.570312 L 20.425781 18.742188 Z M 29.324219 3.328125 "/>
<path style=" stroke:none;fill-rule:nonzero;fill:rgb(43.921569%,70.980392%,90.980392%);fill-opacity:1;" d="M 44.273438 38.5625 C 42.558594 38.5625 41.171875 37.175781 41.171875 35.460938 L 13.542969 35.460938 C 13.542969 37.175781 12.15625 38.5625 10.441406 38.5625 C 10.136719 38.5625 9.886719 38.8125 9.886719 39.117188 L 9.886719 46.792969 C 9.886719 47.316406 10.488281 47.367188 10.441406 47.347656 C 12.15625 47.347656 13.542969 48.734375 13.542969 50.445312 C 15.214844 50.445312 39.597656 50.445312 41.171875 50.445312 C 41.171875 48.734375 42.558594 47.347656 44.273438 47.347656 C 44.695312 47.347656 45.039062 47.003906 45.039062 46.578125 L 45.039062 39.332031 C 45.039062 38.90625 44.695312 38.5625 44.273438 38.5625 Z M 44.273438 38.5625 "/>
<path style=" stroke:none;fill-rule:nonzero;fill:rgb(32.156863%,64.705882%,84.705882%);fill-opacity:1;" d="M 13.957031 45.824219 C 13.652344 45.824219 13.402344 45.574219 13.402344 45.269531 L 13.402344 40.640625 C 13.402344 40.335938 13.652344 40.085938 13.957031 40.085938 C 16.019531 39.609375 17.277344 36.941406 17.058594 35.464844 L 13.542969 35.464844 C 13.542969 37.175781 12.15625 38.5625 10.441406 38.5625 C 10.136719 38.5625 9.886719 38.8125 9.886719 39.117188 L 9.886719 46.792969 C 9.886719 47.097656 10.136719 47.347656 10.441406 47.347656 C 12.15625 47.347656 13.542969 48.734375 13.542969 50.449219 L 17.058594 50.449219 C 17.277344 48.96875 16.019531 46.300781 13.957031 45.824219 Z M 13.957031 45.824219 "/>
<path style=" stroke:none;fill-rule:nonzero;fill:rgb(57.254902%,71.372549%,12.54902%);fill-opacity:1;" d="M 56.429688 24.757812 L 55.820312 24.164062 C 54.9375 23.304688 55.457031 22.257812 55.46875 21.824219 C 55.5625 21.285156 55.195312 20.777344 54.652344 20.699219 C 54.238281 20.578125 53.070312 20.738281 52.527344 19.640625 L 52.152344 18.875 C 51.910156 18.386719 51.3125 18.195312 50.828125 18.449219 C 50.421875 18.589844 49.574219 19.410156 48.488281 18.839844 L 47.746094 18.449219 C 47.269531 18.195312 46.671875 18.382812 46.425781 18.875 C 46.179688 19.238281 45.972656 20.402344 44.757812 20.578125 L 43.925781 20.699219 C 43.382812 20.777344 43.015625 21.285156 43.109375 21.824219 C 43.121094 22.25 43.632812 23.308594 42.753906 24.164062 L 42.148438 24.757812 C 41.753906 25.140625 41.757812 25.765625 42.148438 26.148438 L 42.753906 26.742188 C 43.636719 27.601562 43.121094 28.648438 43.109375 29.082031 C 43.015625 29.621094 43.382812 30.125 43.925781 30.207031 C 44.335938 30.328125 45.507812 30.167969 46.050781 31.265625 C 46.292969 31.621094 46.429688 32.570312 47.296875 32.570312 C 47.671875 32.570312 47.84375 32.378906 48.492188 32.066406 C 49.582031 31.492188 50.410156 32.308594 50.828125 32.457031 C 51.3125 32.710938 51.910156 32.519531 52.152344 32.027344 L 52.527344 31.265625 C 53.074219 30.160156 54.230469 30.328125 54.652344 30.207031 C 55.191406 30.125 55.5625 29.621094 55.46875 29.082031 L 55.328125 28.257812 C 55.121094 27.042969 56.160156 26.5 56.429688 26.148438 C 56.820312 25.765625 56.820312 25.140625 56.429688 24.757812 Z M 56.429688 24.757812 "/>
<path style=" stroke:none;fill-rule:nonzero;fill:rgb(51.372549%,62.745098%,4.313725%);fill-opacity:1;" d="M 46.085938 28.132812 C 44.214844 24.886719 45.1875 20.78125 48.230469 18.703125 L 47.746094 18.449219 C 47.269531 18.195312 46.671875 18.382812 46.425781 18.875 C 46.179688 19.238281 45.972656 20.402344 44.757812 20.578125 L 43.925781 20.699219 C 43.382812 20.777344 43.015625 21.285156 43.109375 21.824219 C 43.121094 22.25 43.632812 23.308594 42.753906 24.164062 L 42.148438 24.757812 C 41.757812 25.140625 41.757812 25.765625 42.148438 26.148438 L 42.753906 26.742188 C 43.636719 27.601562 43.121094 28.648438 43.109375 29.082031 C 43.015625 29.621094 43.382812 30.125 43.925781 30.207031 C 44.335938 30.328125 45.507812 30.167969 46.050781 31.265625 C 46.296875 31.621094 46.429688 32.570312 47.296875 32.570312 C 47.671875 32.570312 47.84375 32.378906 48.492188 32.066406 C 49.582031 31.492188 50.410156 32.308594 50.828125 32.457031 C 51.3125 32.710938 51.910156 32.519531 52.152344 32.027344 L 52.316406 31.691406 C 49.835938 31.710938 47.414062 30.433594 46.085938 28.132812 Z M 46.085938 28.132812 "/>
<path style=" stroke:none;fill-rule:nonzero;fill:rgb(0%,0%,0%);fill-opacity:1;" d="M 15.859375 40.175781 C 17.960938 46.75 17.632812 46.636719 18.179688 46.875 C 18.761719 47.132812 19.726562 47.023438 19.898438 46.472656 C 21.839844 40.082031 21.839844 40.152344 21.839844 40.0625 C 21.839844 39.503906 20.46875 39.09375 20.277344 39.699219 L 18.84375 44.996094 L 17.398438 39.699219 C 17.203125 39.078125 15.695312 39.519531 15.859375 40.175781 Z M 15.859375 40.175781 "/>
<path style=" stroke:none;fill-rule:nonzero;fill:rgb(0%,0%,0%);fill-opacity:1;" d="M 22.550781 45.703125 C 22.679688 46.011719 23.28125 46.710938 23.886719 46.882812 C 24.5 47.054688 25.265625 47.054688 25.886719 46.882812 C 26.785156 46.632812 27.425781 45.894531 27.425781 44.574219 C 27.324219 42.3125 27.761719 40.878906 26.691406 39.953125 C 25.660156 39.0625 22.355469 38.917969 22.355469 41.835938 C 22.398438 44.238281 22.238281 44.96875 22.550781 45.703125 Z M 24.207031 41.050781 C 24.535156 40.71875 25.234375 40.71875 25.566406 41.050781 C 25.96875 41.457031 25.753906 42.113281 25.8125 44.574219 C 25.8125 44.933594 25.730469 45.191406 25.566406 45.359375 C 25.234375 45.691406 24.535156 45.691406 24.207031 45.359375 C 24.046875 45.191406 23.964844 44.929688 23.964844 44.574219 C 24.027344 42.082031 23.8125 41.453125 24.207031 41.050781 Z M 24.207031 41.050781 "/>
<path style=" stroke:none;fill-rule:nonzero;fill:rgb(0%,0%,0%);fill-opacity:1;" d="M 31.390625 46.453125 L 31.390625 40.847656 C 32.695312 40.789062 32.972656 40.988281 33.175781 40.628906 C 33.417969 40.210938 33.320312 39.398438 32.816406 39.398438 C 28.226562 39.472656 28.179688 39.230469 27.984375 39.628906 C 27.757812 40.078125 27.871094 40.847656 28.355469 40.847656 L 29.777344 40.847656 L 29.777344 46.453125 C 29.777344 47.117188 31.390625 47.105469 31.390625 46.453125 Z M 31.390625 46.453125 "/>
<path style=" stroke:none;fill-rule:nonzero;fill:rgb(0%,0%,0%);fill-opacity:1;" d="M 34.15625 46.824219 C 34.535156 47.039062 34.578125 46.910156 38.320312 46.949219 C 38.8125 46.949219 38.925781 46.171875 38.679688 45.757812 C 38.464844 45.390625 38.296875 45.609375 35.550781 45.542969 L 35.550781 43.789062 C 36.996094 43.734375 37.285156 43.917969 37.472656 43.585938 C 37.710938 43.167969 37.554688 42.550781 37.101562 42.550781 L 35.550781 42.550781 L 35.550781 40.804688 C 38.265625 40.742188 38.464844 40.960938 38.679688 40.59375 C 38.828125 40.34375 38.859375 39.953125 38.691406 39.621094 C 38.492188 39.234375 38.363281 39.46875 34.644531 39.398438 C 34.320312 39.398438 33.941406 39.542969 33.941406 39.894531 C 34.011719 46.710938 33.761719 46.597656 34.15625 46.824219 Z M 34.15625 46.824219 "/>
<path style=" stroke:none;fill-rule:nonzero;fill:rgb(0%,0%,0%);fill-opacity:1;" d="M 13.542969 32.960938 L 41.171875 32.960938 C 41.65625 32.960938 42.050781 32.566406 42.050781 32.082031 C 42.050781 31.597656 41.65625 31.203125 41.171875 31.203125 L 13.542969 31.203125 C 13.058594 31.203125 12.664062 31.597656 12.664062 32.082031 C 12.664062 32.566406 13.058594 32.960938 13.542969 32.960938 Z M 13.542969 32.960938 "/>
<path style=" stroke:none;fill-rule:nonzero;fill:rgb(0%,0%,0%);fill-opacity:1;" d="M 41.171875 52.960938 L 13.542969 52.960938 C 13.058594 52.960938 12.664062 53.351562 12.664062 53.839844 C 12.664062 54.324219 13.058594 54.714844 13.542969 54.714844 L 41.171875 54.714844 C 41.65625 54.714844 42.050781 54.324219 42.050781 53.839844 C 42.050781 53.351562 41.65625 52.960938 41.171875 52.960938 Z M 41.171875 52.960938 "/>
<path style=" stroke:none;fill-rule:nonzero;fill:rgb(0%,0%,0%);fill-opacity:1;" d="M 52.09375 23.457031 C 51.726562 23.140625 51.171875 23.175781 50.855469 23.542969 L 48.519531 26.222656 L 47.773438 25.292969 C 47.46875 24.914062 46.914062 24.855469 46.535156 25.160156 C 46.15625 25.464844 46.097656 26.015625 46.402344 26.394531 L 47.808594 28.144531 C 48.152344 28.570312 48.796875 28.582031 49.15625 28.167969 L 52.179688 24.699219 C 52.5 24.332031 52.460938 23.777344 52.09375 23.457031 Z M 52.09375 23.457031 "/>
<path style=" stroke:none;fill-rule:nonzero;fill:rgb(0%,0%,0%);fill-opacity:1;" d="M 44.273438 48.226562 C 45.179688 48.226562 45.917969 47.488281 45.917969 46.578125 L 45.917969 39.332031 C 45.917969 38.421875 45.179688 37.683594 44.273438 37.683594 C 43.046875 37.683594 42.050781 36.6875 42.050781 35.460938 C 42.050781 34.976562 41.65625 34.585938 41.171875 34.585938 L 20.871094 34.585938 C 20.382812 34.585938 19.992188 34.976562 19.992188 35.460938 C 19.992188 35.949219 20.382812 36.339844 20.871094 36.339844 L 40.390625 36.339844 C 40.785156 38.078125 42.316406 39.390625 44.160156 39.441406 L 44.160156 46.46875 C 42.316406 46.519531 40.785156 47.832031 40.390625 49.570312 L 14.324219 49.570312 C 13.945312 47.898438 12.515625 46.621094 10.765625 46.480469 L 10.765625 39.429688 C 12.515625 39.289062 13.945312 38.011719 14.324219 36.339844 L 16.769531 36.339844 C 17.253906 36.339844 17.648438 35.949219 17.648438 35.460938 C 17.648438 34.976562 17.253906 34.582031 16.769531 34.582031 L 13.542969 34.582031 C 13.058594 34.582031 12.664062 34.976562 12.664062 35.460938 C 12.664062 36.6875 11.667969 37.683594 10.441406 37.683594 C 9.652344 37.683594 9.007812 38.328125 9.007812 39.117188 L 9.007812 46.792969 C 9.007812 47.582031 9.652344 48.226562 10.441406 48.226562 C 11.667969 48.226562 12.664062 49.222656 12.664062 50.445312 C 12.664062 50.933594 13.058594 51.324219 13.542969 51.324219 L 41.171875 51.324219 C 41.65625 51.324219 42.050781 50.933594 42.050781 50.445312 C 42.050781 49.222656 43.046875 48.226562 44.273438 48.226562 Z M 44.273438 48.226562 "/>
<path style=" stroke:none;fill-rule:nonzero;fill:rgb(0%,0%,0%);fill-opacity:1;" d="M 56.433594 23.535156 C 55.714844 22.832031 56.910156 21.8125 56.007812 20.574219 C 55.113281 19.339844 53.757812 20.152344 53.316406 19.25 C 53.027344 18.796875 52.886719 17.882812 51.851562 17.546875 C 50.402344 17.078125 49.78125 18.523438 48.898438 18.058594 C 48.554688 17.984375 47.78125 17.132812 46.621094 17.585938 L 45.316406 15.710938 C 44.835938 15.019531 44.042969 14.605469 43.199219 14.605469 L 36.976562 14.605469 L 39.964844 9.425781 C 40.550781 8.414062 40.199219 7.109375 39.1875 6.527344 L 28.378906 0.285156 C 27.359375 -0.300781 26.0625 0.046875 25.476562 1.0625 L 24.050781 3.535156 C 23.808594 3.953125 23.953125 4.492188 24.371094 4.734375 C 24.792969 4.976562 25.328125 4.832031 25.574219 4.414062 L 27 1.941406 C 27.066406 1.828125 27.167969 1.785156 27.222656 1.769531 C 27.277344 1.757812 27.386719 1.742188 27.5 1.808594 L 38.308594 8.046875 C 38.484375 8.148438 38.542969 8.375 38.441406 8.546875 C 37.4375 10.289062 32.9375 18.082031 32.078125 19.570312 L 23.617188 19.570312 L 18.839844 16.808594 C 18.707031 16.734375 18.640625 16.589844 18.65625 16.445312 C 18.671875 16.339844 18.359375 16.90625 23.519531 7.964844 C 23.765625 7.546875 23.621094 7.007812 23.199219 6.765625 C 22.777344 6.523438 22.242188 6.667969 22 7.085938 L 17.660156 14.605469 L 12.042969 14.605469 C 11.183594 14.605469 10.375 15.027344 9.882812 15.734375 C 2.316406 26.726562 2.398438 26.136719 2.398438 27.09375 L 2.398438 56.277344 C 2.398438 58.332031 4.066406 60 6.117188 60 L 48.820312 60 C 51.023438 60 52.816406 58.207031 52.816406 56.003906 C 52.816406 55.519531 52.421875 55.125 51.9375 55.125 C 51.453125 55.125 51.058594 55.519531 51.058594 56.003906 C 51.058594 57.238281 50.054688 58.242188 48.820312 58.242188 L 6.117188 58.242188 C 5.035156 58.242188 4.15625 57.363281 4.15625 56.277344 C 4.175781 26.242188 4.039062 26.894531 4.351562 26.894531 C 4.371094 26.894531 41.066406 26.894531 41.269531 26.894531 L 41.789062 27.402344 C 42.542969 28.136719 41.3125 29.179688 42.230469 30.441406 C 43.144531 31.703125 44.527344 30.859375 44.992188 31.800781 C 45.207031 32.089844 45.523438 33.628906 47.058594 33.628906 C 47.65625 33.628906 47.980469 33.382812 48.691406 33.011719 C 49.488281 32.589844 49.972656 33.574219 51.058594 33.628906 L 51.058594 51.789062 C 51.058594 52.273438 51.453125 52.667969 51.9375 52.667969 C 52.421875 52.667969 52.816406 52.273438 52.816406 51.789062 L 52.816406 32.625 C 52.945312 32.429688 52.945312 32.390625 53.316406 31.652344 C 53.609375 31.054688 54.273438 31.207031 54.835938 31.066406 C 55.820312 30.890625 56.511719 29.953125 56.335938 28.933594 L 56.195312 28.109375 C 56.023438 27.117188 57.601562 26.980469 57.601562 25.453125 C 57.601562 24.371094 56.765625 23.933594 56.433594 23.535156 Z M 42.386719 22.953125 C 42.378906 23.796875 41.210938 23.917969 41 25.136719 L 5.488281 25.136719 L 11.324219 16.738281 C 11.488281 16.503906 11.757812 16.363281 12.042969 16.363281 L 16.902344 16.363281 C 16.871094 16.855469 17.019531 17.375 17.347656 17.796875 C 17.695312 18.246094 17.855469 18.265625 20.101562 19.570312 L 18.820312 19.570312 C 18.332031 19.570312 17.941406 19.960938 17.941406 20.449219 C 17.941406 20.933594 18.332031 21.328125 18.820312 21.328125 L 23.382812 21.328125 C 24.140625 21.328125 36.191406 21.328125 37.457031 21.328125 C 37.945312 21.328125 38.335938 20.933594 38.335938 20.449219 C 38.335938 19.960938 37.945312 19.570312 37.457031 19.570312 L 34.109375 19.570312 L 35.960938 16.363281 L 43.199219 16.363281 C 43.46875 16.363281 43.71875 16.496094 43.875 16.714844 L 45.417969 18.9375 C 45.304688 19.183594 45.171875 19.449219 44.953125 19.589844 C 44.425781 19.929688 43.320312 19.539062 42.566406 20.574219 C 41.898438 21.496094 42.394531 22.34375 42.386719 22.953125 Z M 54.460938 28.40625 C 54.601562 29.269531 54.625 29.246094 54.585938 29.296875 C 54.441406 29.5 52.59375 29.148438 51.738281 30.875 L 51.363281 31.640625 C 51.3125 31.738281 51.214844 31.6875 50.941406 31.527344 C 49.511719 30.699219 48.765625 30.894531 47.574219 31.554688 C 47.117188 31.804688 47.332031 31.777344 46.835938 30.875 C 45.988281 29.15625 44.140625 29.507812 43.988281 29.296875 C 43.847656 29.105469 44.746094 27.453125 43.367188 26.109375 C 42.699219 25.453125 42.765625 25.53125 42.746094 25.5 C 42.691406 25.40625 42.765625 25.390625 43.367188 24.792969 C 44.835938 23.363281 43.699219 21.621094 44.050781 21.570312 L 44.882812 21.449219 C 46.929688 21.152344 47.023438 19.0625 47.339844 19.226562 L 48.082031 19.617188 C 49.78125 20.507812 51.078125 19.144531 51.308594 19.21875 C 51.375 19.238281 51.339844 19.238281 51.738281 20.027344 C 52.589844 21.75 54.429688 21.394531 54.585938 21.605469 C 54.730469 21.800781 53.828125 23.449219 55.207031 24.792969 L 55.816406 25.386719 C 56.074219 25.640625 54.109375 26.359375 54.460938 28.40625 Z M 54.460938 28.40625 "/>
</g>
</svg>
